# xmcd
#
# Track frame offsets:
#	150
#	16076
#	31409
#	46110
#	65339
#	79046
#	96742
#	112644
#	126073
#	138525
#	157764
#	171371
#	190818
#	206156
#	223223
#	239416
#	251231
#
# Disc length: 3535
#
# Revision: 1
# Processed by: cddbd v1.5.1PL0 Copyright (c) Steve Scherf et al.
# Submitted via: VisiTrax 2.9.5.180 - For more info visit www.synapsa.com
# Normalized: r0:DSETVAR1
#
DISCID=ec0dcd11
DTITLE=Various Artist - CDX 291 May 2002
DYEAR=2002
DGENRE=
TTITLE0=Chris Cagle - Country by the grace of God
TTITLE1=Marcel - Country rock star
TTITLE2=Jeffrey Steele - Good to go
TTITLE3=Ricky Skaggs - Halfway home cafe
TTITLE4=Rhonda Vincent - I'm not over ou
TTITLE5=Mindy McCready - Lips like yours
TTITLE6=Sixwire - Look at me now
TTITLE7=Hayseed Dixie - My best friend's girl
TTITLE8=Daryl Dodd - Pearl snaps
TTITLE9=Holly Lamar - So this is life
TTITLE10=MvBride and The Ride - Squeeze box
TTITLE11=Lorrie MOrgan - The color of roses
TTITLE12=Kenny Chesney - The good stuff
TTITLE13=Neal McCoy - What if
TTITLE14=Eddie Charles - Ain't nothin' like it
TTITLE15=Eddie Charles - Between you and me
TTITLE16=Chad Sommons - Heaven sent
EXTD=
EXTT0=
EXTT1=
EXTT2=
EXTT3=
EXTT4=
EXTT5=
EXTT6=
EXTT7=
EXTT8=
EXTT9=
EXTT10=
EXTT11=
EXTT12=
EXTT13=
EXTT14=
EXTT15=
EXTT16=
PLAYORDER=
